<svg width="100" height="100" viewBox="0 0 100 100" fill="none" xmlns="http://www.w3.org/2000/svg">
<g clip-path="url(#clip0_628_6)">
<rect width="100" height="100" rx="50" fill="black"/>
<path d="M51.5111 23.2412C52.8453 22.6583 53.7778 21.3269 53.7778 19.7778C53.7778 17.6914 52.0864 16 50 16C47.9136 16 46.2222 17.6914 46.2222 19.7778C46.2222 21.3269 47.1546 22.6583 48.4889 23.2412L48.4889 48.4889H23.2412C22.6583 47.1547 21.3269 46.2222 19.7778 46.2222C17.6914 46.2222 16 47.9136 16 50C16 52.0864 17.6914 53.7778 19.7778 53.7778C21.3269 53.7778 22.6583 52.8454 23.2412 51.5111H48.4889L48.4889 76.7588C47.1547 77.3417 46.2222 78.6731 46.2222 80.2222C46.2222 82.3086 47.9136 84 50 84C52.0864 84 53.7778 82.3086 53.7778 80.2222C53.7778 78.6731 52.8454 77.3417 51.5111 76.7588L51.5111 51.5111H76.7588C77.3417 52.8454 78.6731 53.7778 80.2222 53.7778C82.3086 53.7778 84 52.0864 84 50C84 47.9136 82.3086 46.2222 80.2222 46.2222C78.6731 46.2222 77.3417 47.1547 76.7588 48.4889H51.5111L51.5111 23.2412Z" fill="white"/>
<path d="M63.6387 23.9545C63.7025 23.7441 63.7368 23.5208 63.7368 23.2895C63.7368 22.025 62.7118 21 61.4474 21C60.1829 21 59.1579 22.025 59.1579 23.2895C59.1579 23.7853 59.3155 24.2443 59.5834 24.6192L38.6513 74.4231C38.6186 74.4218 38.5857 74.4211 38.5526 74.4211C38.3213 74.4211 38.098 74.4554 37.8876 74.5191L25.4809 62.1124C25.5446 61.902 25.5789 61.6787 25.5789 61.4474C25.5789 60.1829 24.5539 59.1579 23.2895 59.1579C22.025 59.1579 21 60.1829 21 61.4474C21 62.7118 22.025 63.7368 23.2895 63.7368C23.5208 63.7368 23.7441 63.7025 23.9545 63.6387L36.3613 76.0455C36.2975 76.2559 36.2632 76.4792 36.2632 76.7105C36.2632 77.975 37.2882 79 38.5526 79C39.8171 79 40.8421 77.975 40.8421 76.7105C40.8421 76.2147 40.6845 75.7557 40.4166 75.3808L61.3487 25.5769C61.3814 25.5782 61.4143 25.5789 61.4474 25.5789C61.6787 25.5789 61.902 25.5446 62.1124 25.4809L74.5191 37.8876C74.4554 38.098 74.4211 38.3213 74.4211 38.5526C74.4211 39.8171 75.4461 40.8421 76.7105 40.8421C77.975 40.8421 79 39.8171 79 38.5526C79 37.2882 77.975 36.2632 76.7105 36.2632C76.4792 36.2632 76.2559 36.2975 76.0455 36.3613L63.6387 23.9545Z" fill="#EB5757"/>
</g>
<defs>
<clipPath id="clip0_628_6">
<rect width="100" height="100" fill="white"/>
</clipPath>
</defs>
</svg>
